# MagicaVoxel @ Ephtracy

# group
o 

# material
mtllib debug-cube.mtl
usemtl palette

# normals
vn -1 0 0
vn 1 0 0
vn 0 0 1
vn 0 0 -1
vn 0 -1 0
vn 0 1 0

# texcoords
vt 0.306641 0.5
vt 0.939453 0.5
vt 0.970703 0.5
vt 0.974609 0.5
vt 0.978516 0.5
vt 0.982422 0.5
vt 0.986328 0.5

# verts
v -2 0 2
v -2 0 1.5
v -2 0 1.1
v -2 0 0.7
v -2 0 0.0999999
v -2 0 -0.2
v -2 0 -2
v -2 0.4 2
v -2 0.4 1.5
v -2 0.4 1.1
v -2 0.4 0.8
v -2 0.4 -0.9
v -2 0.4 -2
v -2 0.5 -0.9
v -2 0.5 -2
v -2 0.7 0.0999999
v -2 0.7 -0.2
v -2 0.9 0.7
v -2 0.9 -2.38419e-007
v -2 1 -2.38419e-007
v -2 1 -0.7
v -2 1 -0.9
v -2 1 -1.3
v -2 1.2 -0.7
v -2 1.2 -0.9
v -2 1.4 -0.7
v -2 1.4 -0.9
v -2 1.4 -1.3
v -2 1.4 -1.6
v -2 1.5 0.8
v -2 1.5 0.7
v -2 2.3 0.8
v -2 2.3 0.3
v -2 2.3 -2.38419e-007
v -2 2.5 -1.7
v -2 2.5 -2
v -2 2.7 -0.7
v -2 2.7 -1.6
v -2 2.8 0.3
v -2 2.8 -0.6
v -2 2.8 -0.7
v -2 3 0.8
v -2 3 0.0999999
v -2 3.1 -1.5
v -2 3.1 -1.7
v -2 3.1 -2
v -2 3.3 2
v -2 3.3 1.4
v -2 3.3 0.8
v -2 3.5 -1.5
v -2 3.5 -1.7
v -2 3.5 -2
v -2 3.6 2
v -2 3.6 1.4
v -2 3.6 0.0999999
v -2 3.6 -0.3
v -2 3.6 -0.4
v -2 3.6 -0.6
v -2 3.7 1.4
v -2 3.7 0.2
v -2 3.7 0.0999999
v -2 3.9 0.2
v -2 3.9 -0.3
v -2 3.9 -0.9
v -2 3.9 -1.7
v -2 3.9 -1.8
v -2 4 2
v -2 4 -0.4
v -2 4 -0.9
v -2 4 -1.8
v -2 4 -2
v 2 0 2
v 2 0 0.4
v 2 0 -0.1
v 2 0 -1.8
v 2 0 -2
v 2 0.1 0.6
v 2 0.1 0.4
v 2 0.1 -0.2
v 2 0.1 -1.8
v 2 0.1 -2
v 2 0.4 2
v 2 0.4 0.9
v 2 0.4 -0.2
v 2 0.4 -1.8
v 2 0.4 -2
v 2 0.7 0.0999999
v 2 0.7 -0.1
v 2 0.7 -0.9
v 2 0.9 0.6
v 2 0.9 0.4
v 2 0.9 0.3
v 2 1.3 -0.9
v 2 1.3 -1.7
v 2 1.6 0.9
v 2 1.6 0.4
v 2 1.6 0.3
v 2 1.6 0.0999999
v 2 1.9 0.9
v 2 1.9 0.4
v 2 1.9 0.3
v 2 1.9 0.0999999
v 2 2.5 0.3
v 2 2.5 0.2
v 2 2.7 0.0999999
v 2 2.7 -0.9
v 2 2.9 -1.8
v 2 2.9 -2
v 2 3 2
v 2 3 0.9
v 2 3.2 0.9
v 2 3.2 0.7
v 2 3.2 0.4
v 2 3.2 0.3
v 2 3.3 0.2
v 2 3.3 -1.7
v 2 3.4 -1.5
v 2 3.4 -2
v 2 3.7 -1.5
v 2 3.7 -2
v 2 3.9 -0.3
v 2 3.9 -0.7
v 2 4 2
v 2 4 0.9
v 2 4 0.7
v 2 4 -0.3
v 2 4 -0.7
v 2 4 -2
v -2 0 2
v -2 0.4 2
v -2 3.3 2
v -2 3.6 2
v -2 4 2
v -1.8 0.2 2
v -1.8 0.4 2
v -1.7 0.2 2
v -1.7 0.4 2
v -1.7 3.3 2
v -1.7 3.6 2
v -1.3 0 2
v -1.3 0.4 2
v -1.1 3.8 2
v -1.1 4 2
v -1 0 2
v -1 0.4 2
v -0.9 0.4 2
v -0.9 1.5 2
v -0.9 1.9 2
v -0.9 3.1 2
v -0.9 3.3 2
v -0.6 1.9 2
v -0.6 2 2
v -0.6 3.1 2
v -0.5 0 2
v -0.5 0.1 2
v -0.3 0 2
v -0.3 0.1 2
v -0.2 3.9 2
v -0.2 4 2
v 2.38419e-007 1.5 2
v 2.38419e-007 2 2
v 2.38419e-007 2.5 2
v 0.2 0 2
v 0.2 0.6 2
v 0.9 0 2
v 0.9 0.6 2
v 1.2 0 2
v 1.2 0.9 2
v 1.2 1 2
v 1.2 1.3 2
v 1.2 1.5 2
v 1.4 1.3 2
v 1.4 2 2
v 1.4 2.5 2
v 1.6 0.9 2
v 1.6 1 2
v 1.6 2 2
v 1.6 3.8 2
v 1.8 3.9 2
v 1.8 4 2
v 1.9 0.4 2
v 1.9 3 2
v 2 0 2
v 2 0.4 2
v 2 3 2
v 2 4 2
v -2 0 -2
v -2 0.4 -2
v -2 0.5 -2
v -2 2.5 -2
v -2 3.1 -2
v -2 3.5 -2
v -2 4 -2
v -1.9 0.4 -2
v -1.9 0.5 -2
v -1.8 0 -2
v -1.8 2.5 -2
v -1.8 3.1 -2
v -1.8 3.5 -2
v -1.8 4 -2
v -1.5 2.1 -2
v -1.5 3.1 -2
v -1.3 1 -2
v -1.3 1.6 -2
v -1.2 0 -2
v -1.2 0.9 -2
v -1 1 -2
v -1 1.6 -2
v -0.6 0 -2
v -0.6 0.9 -2
v -0.5 2.1 -2
v -0.5 3.1 -2
v -0.3 2.9 -2
v -0.3 3.6 -2
v 2.38419e-007 2.7 -2
v 2.38419e-007 2.9 -2
v 2.38419e-007 3.6 -2
v 0.2 0.7 -2
v 0.2 2.7 -2
v 0.4 0.7 -2
v 0.4 2.7 -2
v 0.7 2.7 -2
v 0.7 3.6 -2
v 0.7 3.7 -2
v 0.8 1.1 -2
v 0.8 2.2 -2
v 1 2.7 -2
v 1 3.6 -2
v 1 3.7 -2
v 1.5 2.7 -2
v 1.5 3.6 -2
v 1.7 1.1 -2
v 1.7 2.2 -2
v 1.8 0 -2
v 1.8 2.9 -2
v 1.8 4 -2
v 1.9 0.1 -2
v 1.9 0.4 -2
v 1.9 3.4 -2
v 1.9 3.7 -2
v 2 0 -2
v 2 0.1 -2
v 2 0.4 -2
v 2 2.9 -2
v 2 3.4 -2
v 2 3.7 -2
v 2 4 -2
v -2 0 2
v -1.3 0 2
v -1 0 2
v -0.5 0 2
v -0.3 0 2
v 0.2 0 2
v 0.9 0 2
v 1.2 0 2
v 2 0 2
v 0.2 0 1.9
v 0.9 0 1.9
v -1.3 0 1.8
v -1 0 1.8
v -2 0 1.5
v -1.9 0 1.5
v -0.5 0 1.5
v -0.3 0 1.5
v 1.4 0 1.5
v 1.8 0 1.5
v -1.4 0 1.4
v -0.7 0 1.4
v -2 0 1.1
v -1.9 0 1.1
v -1.4 0 1.1
v -0.7 0 1.1
v -2 0 0.7
v -1.8 0 0.7
v -0.3 0 0.7
v 0.2 0 0.7
v 1.2 0 0.7
v 0.2 0 0.5
v 1.2 0 0.5
v -0.3 0 0.4
v 0.2 0 0.4
v 1.9 0 0.4
v 2 0 0.4
v -2 0 0.0999999
v -1.9 0 0.0999999
v -0.3 0 -2.38419e-007
v 0.2 0 -2.38419e-007
v 1.9 0 -0.1
v 2 0 -0.1
v -2 0 -0.2
v -1.9 0 -0.2
v 1.4 0 -0.3
v 1.8 0 -0.3
v -1.8 0 -0.5
v -0.5 0 -0.5
v -0.3 0 -0.5
v -1.2 0 -0.7
v -0.6 0 -0.7
v -1.8 0 -1
v -1.2 0 -1
v -0.6 0 -1
v -0.5 0 -1
v 0.2 0 -1
v 1.2 0 -1
v 1.8 0 -1
v 1.8 0 -1.8
v 2 0 -1.8
v 0.2 0 -1.9
v 1.2 0 -1.9
v -2 0 -2
v -1.8 0 -2
v -1.2 0 -2
v -0.6 0 -2
v 1.8 0 -2
v 2 0 -2
v -2 4 2
v -1.1 4 2
v -0.2 4 2
v 1.8 4 2
v 2 4 2
v -1.1 4 1.9
v -0.9 4 1.9
v -0.9 4 1.7
v -0.2 4 1.7
v 1.8 4 1.7
v 1.9 4 1.7
v -1.1 4 1.3
v -1 4 1.3
v -0.4 4 1
v -0.2 4 1
v -0.0999999 4 0.9
v 1.8 4 0.9
v 1.9 4 0.9
v 2 4 0.9
v -0.0999999 4 0.7
v 0.3 4 0.7
v 1.9 4 0.7
v 2 4 0.7
v -0.5 4 0.4
v -0.4 4 0.4
v 0.3 4 0.4
v 1.2 4 0.4
v -0.5 4 0.0999999
v -0.4 4 0.0999999
v 0.3 4 0.0999999
v 1.2 4 0.0999999
v -0.2 4 -0.1
v 2.38419e-007 4 -0.1
v -1.9 4 -0.3
v -1 4 -0.3
v 0.3 4 -0.3
v 1.9 4 -0.3
v 2 4 -0.3
v -2 4 -0.4
v -1.9 4 -0.4
v -1.7 4 -0.6
v -1 4 -0.6
v 0.3 4 -0.7
v 1.9 4 -0.7
v 2 4 -0.7
v -2 4 -0.9
v -1.7 4 -0.9
v -0.4 4 -0.9
v -0.2 4 -0.9
v 2.38419e-007 4 -0.9
v 0.3 4 -0.9
v 1.2 4 -0.9
v 1.2 4 -1
v 1.8 4 -1
v 1.8 4 -1.7
v 1.9 4 -1.7
v -2 4 -1.8
v -1.8 4 -1.8
v -0.2 4 -1.8
v 2.38419e-007 4 -1.8
v -2 4 -2
v -1.8 4 -2
v 1.8 4 -2
v 2 4 -2

# faces
f 8/2/1 2/2/1 1/2/1
f 9/6/1 3/6/1 2/6/1
f 9/2/1 2/2/1 8/2/1
f 10/2/1 4/2/1 3/2/1
f 10/6/1 3/6/1 9/6/1
f 11/2/1 4/2/1 10/2/1
f 12/1/1 7/1/1 6/1/1
f 13/1/1 7/1/1 12/1/1
f 14/1/1 12/1/1 6/1/1
f 14/6/1 13/6/1 12/6/1
f 15/6/1 13/6/1 14/6/1
f 16/1/1 5/1/1 4/1/1
f 16/2/1 6/2/1 5/2/1
f 17/1/1 15/1/1 14/1/1
f 17/2/1 6/2/1 16/2/1
f 17/1/1 14/1/1 6/1/1
f 18/2/1 4/2/1 11/2/1
f 18/1/1 16/1/1 4/1/1
f 18/1/1 17/1/1 16/1/1
f 19/1/1 17/1/1 18/1/1
f 20/7/1 19/7/1 18/7/1
f 20/1/1 17/1/1 19/1/1
f 21/1/1 15/1/1 17/1/1
f 21/1/1 17/1/1 20/1/1
f 22/1/1 15/1/1 21/1/1
f 23/1/1 15/1/1 22/1/1
f 24/6/1 21/6/1 20/6/1
f 24/1/1 22/1/1 21/1/1
f 25/5/1 23/5/1 22/5/1
f 25/1/1 22/1/1 24/1/1
f 26/6/1 24/6/1 20/6/1
f 26/4/1 25/4/1 24/4/1
f 27/5/1 23/5/1 25/5/1
f 27/4/1 25/4/1 26/4/1
f 28/1/1 15/1/1 23/1/1
f 28/5/1 23/5/1 27/5/1
f 29/1/1 15/1/1 28/1/1
f 30/3/1 9/3/1 8/3/1
f 30/3/1 10/3/1 9/3/1
f 30/3/1 11/3/1 10/3/1
f 30/2/1 18/2/1 11/2/1
f 31/7/1 20/7/1 18/7/1
f 31/2/1 18/2/1 30/2/1
f 32/3/1 30/3/1 8/3/1
f 32/7/1 31/7/1 30/7/1
f 33/7/1 20/7/1 31/7/1
f 33/7/1 31/7/1 32/7/1
f 34/6/1 29/6/1 28/6/1
f 34/7/1 20/7/1 33/7/1
f 34/6/1 28/6/1 27/6/1
f 34/6/1 27/6/1 26/6/1
f 34/6/1 26/6/1 20/6/1
f 35/1/1 15/1/1 29/1/1
f 36/1/1 15/1/1 35/1/1
f 37/6/1 29/6/1 34/6/1
f 37/6/1 34/6/1 33/6/1
f 38/1/1 35/1/1 29/1/1
f 38/6/1 29/6/1 37/6/1
f 39/5/1 33/5/1 32/5/1
f 39/6/1 37/6/1 33/6/1
f 40/6/1 37/6/1 39/6/1
f 41/1/1 38/1/1 37/1/1
f 41/6/1 37/6/1 40/6/1
f 42/3/1 32/3/1 8/3/1
f 42/5/1 40/5/1 39/5/1
f 42/5/1 39/5/1 32/5/1
f 43/5/1 40/5/1 42/5/1
f 44/1/1 38/1/1 41/1/1
f 44/1/1 41/1/1 40/1/1
f 45/1/1 35/1/1 38/1/1
f 45/1/1 38/1/1 44/1/1
f 45/3/1 36/3/1 35/3/1
f 46/3/1 36/3/1 45/3/1
f 47/3/1 42/3/1 8/3/1
f 48/3/1 42/3/1 47/3/1
f 49/7/1 43/7/1 42/7/1
f 49/3/1 42/3/1 48/3/1
f 50/1/1 44/1/1 40/1/1
f 50/4/1 45/4/1 44/4/1
f 50/4/1 46/4/1 45/4/1
f 51/4/1 46/4/1 50/4/1
f 52/4/1 46/4/1 51/4/1
f 53/5/1 48/5/1 47/5/1
f 54/7/1 49/7/1 48/7/1
f 54/5/1 48/5/1 53/5/1
f 55/5/1 40/5/1 43/5/1
f 55/7/1 49/7/1 54/7/1
f 55/7/1 43/7/1 49/7/1
f 56/5/1 40/5/1 55/5/1
f 57/5/1 40/5/1 56/5/1
f 58/1/1 50/1/1 40/1/1
f 58/5/1 40/5/1 57/5/1
f 58/1/1 51/1/1 50/1/1
f 59/4/1 54/4/1 53/4/1
f 59/7/1 55/7/1 54/7/1
f 60/7/1 55/7/1 59/7/1
f 61/1/1 56/1/1 55/1/1
f 61/7/1 55/7/1 60/7/1
f 62/4/1 60/4/1 59/4/1
f 62/1/1 61/1/1 60/1/1
f 63/4/1 57/4/1 56/4/1
f 63/1/1 61/1/1 62/1/1
f 63/1/1 56/1/1 61/1/1
f 64/1/1 51/1/1 58/1/1
f 64/1/1 58/1/1 57/1/1
f 65/3/1 52/3/1 51/3/1
f 65/1/1 51/1/1 64/1/1
f 66/3/1 52/3/1 65/3/1
f 67/4/1 62/4/1 59/4/1
f 67/4/1 59/4/1 53/4/1
f 67/4/1 63/4/1 62/4/1
f 68/4/1 57/4/1 63/4/1
f 68/4/1 63/4/1 67/4/1
f 68/1/1 64/1/1 57/1/1
f 69/5/1 65/5/1 64/5/1
f 69/1/1 64/1/1 68/1/1
f 69/5/1 66/5/1 65/5/1
f 70/3/1 52/3/1 66/3/1
f 70/5/1 66/5/1 69/5/1
f 71/3/1 52/3/1 70/3/1
f 72/1/2 73/1/2 77/1/2
f 73/3/2 74/3/2 78/3/2
f 77/1/2 73/1/2 78/1/2
f 74/1/2 75/1/2 79/1/2
f 75/3/2 76/3/2 80/3/2
f 79/1/2 75/1/2 80/1/2
f 80/3/2 76/3/2 81/3/2
f 72/1/2 77/1/2 82/1/2
f 82/1/2 77/1/2 83/1/2
f 74/1/2 79/1/2 84/1/2
f 79/7/2 80/7/2 84/7/2
f 80/7/2 81/7/2 84/7/2
f 84/7/2 81/7/2 85/7/2
f 85/7/2 81/7/2 86/7/2
f 78/3/2 74/3/2 87/3/2
f 74/1/2 84/1/2 88/1/2
f 87/3/2 74/3/2 88/3/2
f 84/1/2 85/1/2 88/1/2
f 88/1/2 85/1/2 89/1/2
f 83/1/2 77/1/2 90/1/2
f 77/2/2 78/2/2 90/2/2
f 78/3/2 87/3/2 91/3/2
f 90/2/2 78/2/2 91/2/2
f 91/3/2 87/3/2 92/3/2
f 89/1/2 85/1/2 93/1/2
f 88/6/2 89/6/2 93/6/2
f 87/6/2 88/6/2 93/6/2
f 93/1/2 85/1/2 94/1/2
f 82/6/2 83/6/2 95/6/2
f 83/1/2 90/1/2 95/1/2
f 90/1/2 91/1/2 95/1/2
f 91/7/2 92/7/2 96/7/2
f 95/1/2 91/1/2 96/1/2
f 92/3/2 87/3/2 97/3/2
f 96/7/2 92/7/2 97/7/2
f 87/6/2 93/6/2 98/6/2
f 97/3/2 87/3/2 98/3/2
f 95/5/2 96/5/2 99/5/2
f 82/6/2 95/6/2 99/6/2
f 96/7/2 97/7/2 100/7/2
f 99/5/2 96/5/2 100/5/2
f 97/5/2 98/5/2 101/5/2
f 100/7/2 97/7/2 101/7/2
f 98/6/2 93/6/2 102/6/2
f 101/5/2 98/5/2 102/5/2
f 100/7/2 101/7/2 103/7/2
f 101/3/2 102/3/2 103/3/2
f 103/3/2 102/3/2 104/3/2
f 102/6/2 93/6/2 105/6/2
f 104/3/2 102/3/2 105/3/2
f 93/3/2 94/3/2 106/3/2
f 105/6/2 93/6/2 106/6/2
f 94/1/2 85/1/2 107/1/2
f 85/3/2 86/3/2 107/3/2
f 107/3/2 86/3/2 108/3/2
f 82/6/2 99/6/2 109/6/2
f 99/1/2 100/1/2 110/1/2
f 109/6/2 99/6/2 110/6/2
f 109/1/2 110/1/2 111/1/2
f 110/1/2 100/1/2 111/1/2
f 111/1/2 100/1/2 112/1/2
f 100/7/2 103/7/2 113/7/2
f 112/1/2 100/1/2 113/1/2
f 103/1/2 104/1/2 114/1/2
f 113/7/2 103/7/2 114/7/2
f 112/1/2 113/1/2 115/1/2
f 114/1/2 104/1/2 115/1/2
f 113/1/2 114/1/2 115/1/2
f 104/3/2 105/3/2 115/3/2
f 105/3/2 106/3/2 115/3/2
f 106/3/2 94/3/2 116/3/2
f 115/3/2 106/3/2 116/3/2
f 107/1/2 108/1/2 116/1/2
f 94/1/2 107/1/2 116/1/2
f 115/1/2 116/1/2 117/1/2
f 116/1/2 108/1/2 118/1/2
f 117/1/2 116/1/2 118/1/2
f 115/1/2 117/1/2 119/1/2
f 117/3/2 118/3/2 119/3/2
f 119/3/2 118/3/2 120/3/2
f 115/1/2 119/1/2 121/1/2
f 119/1/2 120/1/2 121/1/2
f 121/1/2 120/1/2 122/1/2
f 109/1/2 111/1/2 123/1/2
f 111/5/2 112/5/2 124/5/2
f 123/1/2 111/1/2 124/1/2
f 112/1/2 115/1/2 125/1/2
f 124/5/2 112/5/2 125/5/2
f 115/1/2 121/1/2 125/1/2
f 121/5/2 122/5/2 126/5/2
f 125/1/2 121/1/2 126/1/2
f 122/1/2 120/1/2 127/1/2
f 126/5/2 122/5/2 127/5/2
f 127/1/2 120/1/2 128/1/2
f 134/2/3 130/2/3 129/2/3
f 135/3/3 131/3/3 130/3/3
f 135/2/3 130/2/3 134/2/3
f 136/2/3 134/2/3 129/2/3
f 136/3/3 135/3/3 134/3/3
f 137/3/3 131/3/3 135/3/3
f 137/3/3 135/3/3 136/3/3
f 138/5/3 132/5/3 131/5/3
f 138/3/3 131/3/3 137/3/3
f 139/4/3 133/4/3 132/4/3
f 139/5/3 132/5/3 138/5/3
f 140/2/3 136/2/3 129/2/3
f 140/2/3 137/2/3 136/2/3
f 141/3/3 138/3/3 137/3/3
f 141/2/3 137/2/3 140/2/3
f 142/4/3 133/4/3 139/4/3
f 142/4/3 139/4/3 138/4/3
f 143/4/3 133/4/3 142/4/3
f 144/4/3 141/4/3 140/4/3
f 145/3/3 138/3/3 141/3/3
f 145/4/3 141/4/3 144/4/3
f 146/2/3 145/2/3 144/2/3
f 146/3/3 138/3/3 145/3/3
f 147/3/3 138/3/3 146/3/3
f 148/3/3 138/3/3 147/3/3
f 149/3/3 138/3/3 148/3/3
f 150/4/3 142/4/3 138/4/3
f 150/3/3 138/3/3 149/3/3
f 151/5/3 149/5/3 148/5/3
f 151/1/3 148/1/3 147/1/3
f 152/5/3 149/5/3 151/5/3
f 153/4/3 150/4/3 149/4/3
f 153/5/3 149/5/3 152/5/3
f 154/2/3 146/2/3 144/2/3
f 154/2/3 147/2/3 146/2/3
f 155/2/3 147/2/3 154/2/3
f 156/6/3 155/6/3 154/6/3
f 157/2/3 147/2/3 155/2/3
f 157/6/3 155/6/3 156/6/3
f 158/1/3 143/1/3 142/1/3
f 159/1/3 143/1/3 158/1/3
f 160/2/3 147/2/3 157/2/3
f 160/1/3 152/1/3 151/1/3
f 160/1/3 151/1/3 147/1/3
f 160/2/3 157/2/3 156/2/3
f 161/4/3 153/4/3 152/4/3
f 161/1/3 152/1/3 160/1/3
f 162/4/3 153/4/3 161/4/3
f 163/2/3 160/2/3 156/2/3
f 164/2/3 160/2/3 163/2/3
f 165/3/3 164/3/3 163/3/3
f 166/2/3 160/2/3 164/2/3
f 166/3/3 164/3/3 165/3/3
f 167/2/3 166/2/3 165/2/3
f 168/2/3 160/2/3 166/2/3
f 168/2/3 166/2/3 167/2/3
f 169/2/3 160/2/3 168/2/3
f 170/2/3 160/2/3 169/2/3
f 171/7/3 161/7/3 160/7/3
f 171/2/3 160/2/3 170/2/3
f 171/7/3 162/7/3 161/7/3
f 172/1/3 170/1/3 169/1/3
f 172/7/3 171/7/3 170/7/3
f 173/7/3 162/7/3 171/7/3
f 173/7/3 171/7/3 172/7/3
f 174/4/3 153/4/3 162/4/3
f 174/7/3 162/7/3 173/7/3
f 175/5/3 169/5/3 168/5/3
f 175/1/3 168/1/3 167/1/3
f 176/1/3 173/1/3 172/1/3
f 176/5/3 169/5/3 175/5/3
f 176/1/3 172/1/3 169/1/3
f 177/4/3 174/4/3 173/4/3
f 177/1/3 173/1/3 176/1/3
f 178/4/3 142/4/3 150/4/3
f 178/4/3 174/4/3 177/4/3
f 178/4/3 150/4/3 153/4/3
f 178/1/3 158/1/3 142/1/3
f 178/4/3 153/4/3 174/4/3
f 179/1/3 177/1/3 176/1/3
f 179/1/3 158/1/3 178/1/3
f 179/1/3 178/1/3 177/1/3
f 179/4/3 159/4/3 158/4/3
f 179/1/3 176/1/3 175/1/3
f 180/4/3 159/4/3 179/4/3
f 181/1/3 175/1/3 167/1/3
f 181/1/3 179/1/3 175/1/3
f 181/1/3 180/1/3 179/1/3
f 182/1/3 180/1/3 181/1/3
f 183/1/3 181/1/3 167/1/3
f 184/6/3 182/6/3 181/6/3
f 184/1/3 181/1/3 183/1/3
f 185/1/3 180/1/3 182/1/3
f 185/6/3 182/6/3 184/6/3
f 186/1/3 180/1/3 185/1/3
f 187/1/4 188/1/4 194/1/4
f 188/6/4 189/6/4 194/6/4
f 189/1/4 190/1/4 195/1/4
f 194/6/4 189/6/4 195/6/4
f 187/1/4 194/1/4 196/1/4
f 194/1/4 195/1/4 196/1/4
f 195/1/4 190/1/4 197/1/4
f 196/1/4 195/1/4 197/1/4
f 190/3/4 191/3/4 197/3/4
f 191/4/4 192/4/4 198/4/4
f 197/3/4 191/3/4 198/3/4
f 192/3/4 193/3/4 199/3/4
f 198/4/4 192/4/4 199/4/4
f 199/3/4 193/3/4 200/3/4
f 197/5/4 198/5/4 201/5/4
f 196/5/4 197/5/4 201/5/4
f 199/5/4 200/5/4 201/5/4
f 198/5/4 199/5/4 201/5/4
f 201/5/4 200/5/4 202/5/4
f 196/5/4 201/5/4 203/5/4
f 203/5/4 201/5/4 204/5/4
f 196/5/4 203/5/4 205/5/4
f 205/5/4 203/5/4 206/5/4
f 203/3/4 204/3/4 207/3/4
f 206/5/4 203/5/4 207/5/4
f 204/5/4 201/5/4 208/5/4
f 207/3/4 204/3/4 208/3/4
f 205/6/4 206/6/4 209/6/4
f 206/5/4 207/5/4 210/5/4
f 209/6/4 206/6/4 210/6/4
f 207/5/4 208/5/4 210/5/4
f 201/7/4 202/7/4 211/7/4
f 210/5/4 208/5/4 211/5/4
f 209/5/4 210/5/4 211/5/4
f 208/5/4 201/5/4 211/5/4
f 202/5/4 200/5/4 212/5/4
f 211/7/4 202/7/4 212/7/4
f 211/5/4 212/5/4 213/5/4
f 212/5/4 200/5/4 214/5/4
f 213/5/4 212/5/4 214/5/4
f 211/5/4 213/5/4 215/5/4
f 213/6/4 214/6/4 216/6/4
f 215/5/4 213/5/4 216/5/4
f 214/5/4 200/5/4 217/5/4
f 216/6/4 214/6/4 217/6/4
f 209/5/4 211/5/4 218/5/4
f 211/5/4 215/5/4 218/5/4
f 215/2/4 216/2/4 219/2/4
f 218/5/4 215/5/4 219/5/4
f 216/2/4 217/2/4 219/2/4
f 209/5/4 218/5/4 220/5/4
f 218/6/4 219/6/4 220/6/4
f 219/2/4 217/2/4 221/2/4
f 220/6/4 219/6/4 221/6/4
f 220/5/4 221/5/4 222/5/4
f 221/2/4 217/2/4 222/2/4
f 217/5/4 200/5/4 223/5/4
f 222/2/4 217/2/4 223/2/4
f 223/5/4 200/5/4 224/5/4
f 220/5/4 222/5/4 225/5/4
f 225/5/4 222/5/4 226/5/4
f 222/3/4 223/3/4 227/3/4
f 226/5/4 222/5/4 227/5/4
f 223/3/4 224/3/4 227/3/4
f 227/3/4 224/3/4 228/3/4
f 224/5/4 200/5/4 229/5/4
f 228/3/4 224/3/4 229/3/4
f 227/2/4 228/2/4 230/2/4
f 226/5/4 227/5/4 230/5/4
f 228/5/4 229/5/4 231/5/4
f 230/2/4 228/2/4 231/2/4
f 225/7/4 226/7/4 232/7/4
f 220/5/4 225/5/4 232/5/4
f 230/5/4 231/5/4 233/5/4
f 232/7/4 226/7/4 233/7/4
f 226/5/4 230/5/4 233/5/4
f 209/5/4 220/5/4 234/5/4
f 220/5/4 232/5/4 234/5/4
f 232/5/4 233/5/4 234/5/4
f 233/5/4 231/5/4 235/5/4
f 234/5/4 233/5/4 235/5/4
f 229/5/4 200/5/4 236/5/4
f 235/5/4 231/5/4 236/5/4
f 231/5/4 229/5/4 236/5/4
f 234/3/4 235/3/4 237/3/4
f 237/3/4 235/3/4 238/3/4
f 235/1/4 236/1/4 239/1/4
f 239/1/4 236/1/4 240/1/4
f 234/3/4 237/3/4 241/3/4
f 237/7/4 238/7/4 242/7/4
f 241/3/4 237/3/4 242/3/4
f 238/3/4 235/3/4 243/3/4
f 242/7/4 238/7/4 243/7/4
f 235/1/4 239/1/4 244/1/4
f 243/3/4 235/3/4 244/3/4
f 239/3/4 240/3/4 245/3/4
f 244/1/4 239/1/4 245/1/4
f 240/1/4 236/1/4 246/1/4
f 245/3/4 240/3/4 246/3/4
f 246/1/4 236/1/4 247/1/4
f 257/2/5 253/2/5 252/2/5
f 257/3/5 254/3/5 253/3/5
f 258/2/5 255/2/5 254/2/5
f 258/3/5 254/3/5 257/3/5
f 259/2/5 249/2/5 248/2/5
f 259/4/5 250/4/5 249/4/5
f 260/2/5 251/2/5 250/2/5
f 260/4/5 250/4/5 259/4/5
f 261/2/5 259/2/5 248/2/5
f 261/2/5 260/2/5 259/2/5
f 262/2/5 260/2/5 261/2/5
f 263/2/5 251/2/5 260/2/5
f 263/2/5 260/2/5 262/2/5
f 263/6/5 252/6/5 251/6/5
f 264/2/5 258/2/5 257/2/5
f 264/6/5 252/6/5 263/6/5
f 264/2/5 257/2/5 252/2/5
f 265/1/5 256/1/5 255/1/5
f 266/1/5 256/1/5 265/1/5
f 267/2/5 263/2/5 262/2/5
f 267/2/5 264/2/5 263/2/5
f 268/2/5 264/2/5 267/2/5
f 269/6/5 262/6/5 261/6/5
f 270/2/5 267/2/5 262/2/5
f 270/6/5 262/6/5 269/6/5
f 271/4/5 268/4/5 267/4/5
f 271/2/5 267/2/5 270/2/5
f 272/2/5 264/2/5 268/2/5
f 272/4/5 268/4/5 271/4/5
f 273/2/5 271/2/5 270/2/5
f 273/2/5 270/2/5 269/2/5
f 273/2/5 272/2/5 271/2/5
f 274/2/5 272/2/5 273/2/5
f 275/2/5 264/2/5 272/2/5
f 275/2/5 272/2/5 274/2/5
f 275/2/5 258/2/5 264/2/5
f 276/2/5 258/2/5 275/2/5
f 277/2/5 255/2/5 258/2/5
f 277/2/5 258/2/5 276/2/5
f 277/1/5 265/1/5 255/1/5
f 278/4/5 276/4/5 275/4/5
f 278/1/5 277/1/5 276/1/5
f 279/1/5 265/1/5 277/1/5
f 279/1/5 277/1/5 278/1/5
f 280/4/5 278/4/5 275/4/5
f 280/7/5 275/7/5 274/7/5
f 281/6/5 279/6/5 278/6/5
f 281/4/5 278/4/5 280/4/5
f 282/1/5 256/1/5 266/1/5
f 283/1/5 256/1/5 282/1/5
f 284/1/5 274/1/5 273/1/5
f 285/1/5 274/1/5 284/1/5
f 286/7/5 280/7/5 274/7/5
f 286/1/5 281/1/5 280/1/5
f 287/6/5 279/6/5 281/6/5
f 287/1/5 281/1/5 286/1/5
f 288/1/5 282/1/5 266/1/5
f 288/3/5 283/3/5 282/3/5
f 289/3/5 283/3/5 288/3/5
f 290/2/5 285/2/5 284/2/5
f 291/1/5 274/1/5 285/1/5
f 291/2/5 285/2/5 290/2/5
f 292/1/5 265/1/5 279/1/5
f 292/4/5 266/4/5 265/4/5
f 293/1/5 288/1/5 266/1/5
f 293/4/5 266/4/5 292/4/5
f 293/1/5 289/1/5 288/1/5
f 294/1/5 274/1/5 291/1/5
f 294/7/5 286/7/5 274/7/5
f 294/1/5 291/1/5 290/1/5
f 295/7/5 286/7/5 294/7/5
f 296/4/5 287/4/5 286/4/5
f 296/7/5 286/7/5 295/7/5
f 297/1/5 295/1/5 294/1/5
f 298/1/5 295/1/5 297/1/5
f 299/1/5 294/1/5 290/1/5
f 299/1/5 297/1/5 294/1/5
f 300/6/5 298/6/5 297/6/5
f 300/1/5 297/1/5 299/1/5
f 301/1/5 295/1/5 298/1/5
f 301/6/5 298/6/5 300/6/5
f 302/4/5 296/4/5 295/4/5
f 302/1/5 295/1/5 301/1/5
f 303/6/5 279/6/5 287/6/5
f 303/4/5 296/4/5 302/4/5
f 303/4/5 287/4/5 296/4/5
f 304/1/5 293/1/5 292/1/5
f 304/6/5 279/6/5 303/6/5
f 304/1/5 292/1/5 279/1/5
f 305/1/5 289/1/5 293/1/5
f 305/1/5 293/1/5 304/1/5
f 306/5/5 305/5/5 304/5/5
f 306/1/5 289/1/5 305/1/5
f 307/1/5 289/1/5 306/1/5
f 308/6/5 304/6/5 303/6/5
f 308/5/5 303/5/5 302/5/5
f 308/5/5 302/5/5 301/5/5
f 309/5/5 306/5/5 304/5/5
f 309/6/5 304/6/5 308/6/5
f 310/1/5 299/1/5 290/1/5
f 311/5/5 300/5/5 299/5/5
f 311/1/5 299/1/5 310/1/5
f 312/6/5 301/6/5 300/6/5
f 312/5/5 300/5/5 311/5/5
f 313/5/5 308/5/5 301/5/5
f 313/6/5 301/6/5 312/6/5
f 313/5/5 309/5/5 308/5/5
f 314/3/5 307/3/5 306/3/5
f 314/5/5 309/5/5 313/5/5
f 314/5/5 306/5/5 309/5/5
f 315/3/5 307/3/5 314/3/5
f 316/4/6 317/4/6 321/4/6
f 317/1/6 318/1/6 321/1/6
f 321/1/6 318/1/6 322/1/6
f 321/3/6 322/3/6 323/3/6
f 322/1/6 318/1/6 323/1/6
f 318/4/6 319/4/6 324/4/6
f 323/1/6 318/1/6 324/1/6
f 319/1/6 320/1/6 325/1/6
f 324/4/6 319/4/6 325/4/6
f 325/1/6 320/1/6 326/1/6
f 323/3/6 324/3/6 327/3/6
f 321/3/6 323/3/6 327/3/6
f 316/4/6 321/4/6 327/4/6
f 327/3/6 324/3/6 328/3/6
f 328/3/6 324/3/6 329/3/6
f 324/4/6 325/4/6 330/4/6
f 329/3/6 324/3/6 330/3/6
f 329/4/6 330/4/6 331/4/6
f 330/4/6 325/4/6 331/4/6
f 325/3/6 326/3/6 332/3/6
f 331/4/6 325/4/6 332/4/6
f 326/1/6 320/1/6 333/1/6
f 332/3/6 326/3/6 333/3/6
f 333/1/6 320/1/6 334/1/6
f 331/5/6 332/5/6 335/5/6
f 329/4/6 331/4/6 335/4/6
f 333/5/6 334/5/6 335/5/6
f 332/5/6 333/5/6 335/5/6
f 335/5/6 334/5/6 336/5/6
f 336/5/6 334/5/6 337/5/6
f 337/5/6 334/5/6 338/5/6
f 328/3/6 329/3/6 339/3/6
f 329/4/6 335/4/6 340/4/6
f 339/3/6 329/3/6 340/3/6
f 335/4/6 336/4/6 340/4/6
f 336/3/6 337/3/6 341/3/6
f 340/4/6 336/4/6 341/4/6
f 341/3/6 337/3/6 342/3/6
f 328/3/6 339/3/6 343/3/6
f 339/7/6 340/7/6 343/7/6
f 341/7/6 342/7/6 343/7/6
f 340/7/6 341/7/6 343/7/6
f 343/7/6 342/7/6 344/7/6
f 344/7/6 342/7/6 345/7/6
f 342/3/6 337/3/6 346/3/6
f 345/7/6 342/7/6 346/7/6
f 344/4/6 345/4/6 347/4/6
f 347/4/6 345/4/6 348/4/6
f 327/4/6 328/4/6 349/4/6
f 316/4/6 327/4/6 349/4/6
f 328/3/6 343/3/6 350/3/6
f 349/4/6 328/4/6 350/4/6
f 343/3/6 344/3/6 350/3/6
f 348/4/6 345/4/6 351/4/6
f 345/3/6 346/3/6 351/3/6
f 346/3/6 337/3/6 352/3/6
f 351/3/6 346/3/6 352/3/6
f 337/1/6 338/1/6 352/1/6
f 352/1/6 338/1/6 353/1/6
f 316/4/6 349/4/6 354/4/6
f 349/1/6 350/1/6 355/1/6
f 354/4/6 349/4/6 355/4/6
f 354/1/6 355/1/6 356/1/6
f 355/1/6 350/1/6 356/1/6
f 350/3/6 344/3/6 357/3/6
f 356/1/6 350/1/6 357/1/6
f 348/4/6 351/4/6 358/4/6
f 351/5/6 352/5/6 358/5/6
f 352/5/6 353/5/6 358/5/6
f 358/5/6 353/5/6 359/5/6
f 359/5/6 353/5/6 360/5/6
f 354/1/6 356/1/6 361/1/6
f 356/3/6 357/3/6 362/3/6
f 361/1/6 356/1/6 362/1/6
f 357/3/6 344/3/6 363/3/6
f 362/3/6 357/3/6 363/3/6
f 344/4/6 347/4/6 363/4/6
f 347/7/6 348/7/6 364/7/6
f 363/4/6 347/4/6 364/4/6
f 348/4/6 358/4/6 365/4/6
f 364/7/6 348/7/6 365/7/6
f 358/3/6 359/3/6 366/3/6
f 365/4/6 358/4/6 366/4/6
f 366/3/6 359/3/6 367/3/6
f 365/5/6 366/5/6 368/5/6
f 367/3/6 359/3/6 368/3/6
f 366/5/6 367/5/6 368/5/6
f 368/3/6 359/3/6 369/3/6
f 368/5/6 369/5/6 370/5/6
f 369/3/6 359/3/6 370/3/6
f 359/1/6 360/1/6 371/1/6
f 370/3/6 359/3/6 371/3/6
f 362/5/6 363/5/6 372/5/6
f 361/5/6 362/5/6 372/5/6
f 363/5/6 364/5/6 372/5/6
f 372/5/6 364/5/6 373/5/6
f 364/7/6 365/7/6 374/7/6
f 373/5/6 364/5/6 374/5/6
f 368/5/6 370/5/6 375/5/6
f 374/7/6 365/7/6 375/7/6
f 365/5/6 368/5/6 375/5/6
f 372/3/6 373/3/6 376/3/6
f 373/5/6 374/5/6 377/5/6
f 376/3/6 373/3/6 377/3/6
f 374/5/6 375/5/6 377/5/6
f 370/1/6 371/1/6 378/1/6
f 377/5/6 375/5/6 378/5/6
f 375/5/6 370/5/6 378/5/6
f 371/1/6 360/1/6 379/1/6
f 378/1/6 371/1/6 379/1/6
