# MagicaVoxel @ Ephtracy

# group
o 

# material
mtllib Button-1.mtl
usemtl palette

# normals
vn -1 0 0
vn 1 0 0
vn 0 0 1
vn 0 0 -1
vn 0 -1 0
vn 0 1 0

# texcoords
vt 0.939453 0.5
vt 0.943359 0.5
vt 0.947266 0.5
vt 0.951172 0.5
vt 0.955078 0.5

# verts
v -2 0 1.8
v -2 0 -1.8
v -2 0.2 1.8
v -2 0.2 -1.8
v -1.9 0 1.9
v -1.9 0 1.8
v -1.9 0 -1.8
v -1.9 0 -1.9
v -1.9 0.2 1.9
v -1.9 0.2 1.8
v -1.9 0.2 -1.8
v -1.9 0.2 -1.9
v -1.9 0.3 1.8
v -1.9 0.3 -1.8
v -1.8 0 2
v -1.8 0 1.9
v -1.8 0 -1.9
v -1.8 0 -2
v -1.8 0.2 2
v -1.8 0.2 1.9
v -1.8 0.2 1.8
v -1.8 0.2 -1.8
v -1.8 0.2 -1.9
v -1.8 0.2 -2
v -1.8 0.3 1.9
v -1.8 0.3 1.8
v -1.8 0.3 -1.8
v -1.8 0.3 -1.9
v 0.3 0 0.3
v 0.3 0 -0.3
v 0.3 0.1 0.3
v 0.3 0.1 -0.3
v 1.5 0.1 1.5
v 1.5 0.1 -1.5
v 1.5 0.3 1.5
v 1.5 0.3 -1.5
v -1.5 0.1 1.5
v -1.5 0.1 -1.5
v -1.5 0.3 1.5
v -1.5 0.3 -1.5
v -0.3 0 0.3
v -0.3 0 -0.3
v -0.3 0.1 0.3
v -0.3 0.1 -0.3
v 1.8 0 2
v 1.8 0 1.9
v 1.8 0 -1.9
v 1.8 0 -2
v 1.8 0.2 2
v 1.8 0.2 1.9
v 1.8 0.2 1.8
v 1.8 0.2 -1.8
v 1.8 0.2 -1.9
v 1.8 0.2 -2
v 1.8 0.3 1.9
v 1.8 0.3 1.8
v 1.8 0.3 -1.8
v 1.8 0.3 -1.9
v 1.9 0 1.9
v 1.9 0 1.8
v 1.9 0 -1.8
v 1.9 0 -1.9
v 1.9 0.2 1.9
v 1.9 0.2 1.8
v 1.9 0.2 -1.8
v 1.9 0.2 -1.9
v 1.9 0.3 1.8
v 1.9 0.3 -1.8
v 2 0 1.8
v 2 0 -1.8
v 2 0.2 1.8
v 2 0.2 -1.8
v -1.8 0 2
v -1.8 0.2 2
v 1.8 0 2
v 1.8 0.2 2
v -1.9 0 1.9
v -1.9 0.2 1.9
v -1.8 0 1.9
v -1.8 0.2 1.9
v -1.8 0.3 1.9
v 1.8 0 1.9
v 1.8 0.2 1.9
v 1.8 0.3 1.9
v 1.9 0 1.9
v 1.9 0.2 1.9
v -2 0 1.8
v -2 0.2 1.8
v -1.9 0 1.8
v -1.9 0.2 1.8
v -1.9 0.3 1.8
v -1.8 0.2 1.8
v -1.8 0.3 1.8
v 1.8 0.2 1.8
v 1.8 0.3 1.8
v 1.9 0 1.8
v 1.9 0.2 1.8
v 1.9 0.3 1.8
v 2 0 1.8
v 2 0.2 1.8
v -0.3 0 -0.3
v -0.3 0.1 -0.3
v 0.3 0 -0.3
v 0.3 0.1 -0.3
v -1.5 0.1 -1.5
v -1.5 0.3 -1.5
v 1.5 0.1 -1.5
v 1.5 0.3 -1.5
v -1.5 0.1 1.5
v -1.5 0.3 1.5
v 1.5 0.1 1.5
v 1.5 0.3 1.5
v -0.3 0 0.3
v -0.3 0.1 0.3
v 0.3 0 0.3
v 0.3 0.1 0.3
v -2 0 -1.8
v -2 0.2 -1.8
v -1.9 0 -1.8
v -1.9 0.2 -1.8
v -1.9 0.3 -1.8
v -1.8 0.2 -1.8
v -1.8 0.3 -1.8
v 1.8 0.2 -1.8
v 1.8 0.3 -1.8
v 1.9 0 -1.8
v 1.9 0.2 -1.8
v 1.9 0.3 -1.8
v 2 0 -1.8
v 2 0.2 -1.8
v -1.9 0 -1.9
v -1.9 0.2 -1.9
v -1.8 0 -1.9
v -1.8 0.2 -1.9
v -1.8 0.3 -1.9
v 1.8 0 -1.9
v 1.8 0.2 -1.9
v 1.8 0.3 -1.9
v 1.9 0 -1.9
v 1.9 0.2 -1.9
v -1.8 0 -2
v -1.8 0.2 -2
v 1.8 0 -2
v 1.8 0.2 -2
v -1.8 0 2
v 1.8 0 2
v -1.9 0 1.9
v -1.8 0 1.9
v 1.8 0 1.9
v 1.9 0 1.9
v -2 0 1.8
v -1.9 0 1.8
v -1.8 0 1.8
v 1.8 0 1.8
v 1.9 0 1.8
v 2 0 1.8
v -1.5 0 1.5
v 1.5 0 1.5
v -1.4 0 1.4
v -1.2 0 1.4
v 1.2 0 1.4
v 1.4 0 1.4
v -1.4 0 1.2
v -1.2 0 1.2
v -0.9 0 1.2
v 0.9 0 1.2
v 1.2 0 1.2
v 1.4 0 1.2
v -1.2 0 0.9
v -0.9 0 0.9
v -0.6 0 0.9
v 0.6 0 0.9
v 0.9 0 0.9
v 1.2 0 0.9
v -0.9 0 0.6
v -0.6 0 0.6
v 0.6 0 0.6
v 0.9 0 0.6
v -0.3 0 0.3
v 0.3 0 0.3
v -0.3 0 -0.3
v 0.3 0 -0.3
v -0.9 0 -0.6
v -0.6 0 -0.6
v 0.6 0 -0.6
v 0.9 0 -0.6
v -1.2 0 -0.9
v -0.9 0 -0.9
v -0.6 0 -0.9
v 0.6 0 -0.9
v 0.9 0 -0.9
v 1.2 0 -0.9
v -1.4 0 -1.2
v -1.2 0 -1.2
v -0.9 0 -1.2
v 0.9 0 -1.2
v 1.2 0 -1.2
v 1.4 0 -1.2
v -1.4 0 -1.4
v -1.2 0 -1.4
v 1.2 0 -1.4
v 1.4 0 -1.4
v -1.5 0 -1.5
v 1.5 0 -1.5
v -2 0 -1.8
v -1.9 0 -1.8
v -1.8 0 -1.8
v 1.8 0 -1.8
v 1.9 0 -1.8
v 2 0 -1.8
v -1.9 0 -1.9
v -1.8 0 -1.9
v 1.8 0 -1.9
v 1.9 0 -1.9
v -1.8 0 -2
v 1.8 0 -2
v -1.5 0.1 1.5
v 1.5 0.1 1.5
v -1.4 0.1 1.4
v -1.2 0.1 1.4
v 1.2 0.1 1.4
v 1.4 0.1 1.4
v -1.4 0.1 1.2
v -1.2 0.1 1.2
v -0.9 0.1 1.2
v 0.9 0.1 1.2
v 1.2 0.1 1.2
v 1.4 0.1 1.2
v -1.2 0.1 0.9
v -0.9 0.1 0.9
v -0.6 0.1 0.9
v 0.6 0.1 0.9
v 0.9 0.1 0.9
v 1.2 0.1 0.9
v -0.9 0.1 0.6
v -0.6 0.1 0.6
v 0.6 0.1 0.6
v 0.9 0.1 0.6
v -0.3 0.1 0.3
v 0.3 0.1 0.3
v -0.3 0.1 -0.3
v 0.3 0.1 -0.3
v -0.9 0.1 -0.6
v -0.6 0.1 -0.6
v 0.6 0.1 -0.6
v 0.9 0.1 -0.6
v -1.2 0.1 -0.9
v -0.9 0.1 -0.9
v -0.6 0.1 -0.9
v 0.6 0.1 -0.9
v 0.9 0.1 -0.9
v 1.2 0.1 -0.9
v -1.4 0.1 -1.2
v -1.2 0.1 -1.2
v -0.9 0.1 -1.2
v 0.9 0.1 -1.2
v 1.2 0.1 -1.2
v 1.4 0.1 -1.2
v -1.4 0.1 -1.4
v -1.2 0.1 -1.4
v 1.2 0.1 -1.4
v 1.4 0.1 -1.4
v -1.5 0.1 -1.5
v 1.5 0.1 -1.5
v -1.8 0.2 2
v 1.8 0.2 2
v -1.9 0.2 1.9
v -1.8 0.2 1.9
v 1.8 0.2 1.9
v 1.9 0.2 1.9
v -2 0.2 1.8
v -1.9 0.2 1.8
v -1.8 0.2 1.8
v 1.8 0.2 1.8
v 1.9 0.2 1.8
v 2 0.2 1.8
v -2 0.2 -1.8
v -1.9 0.2 -1.8
v -1.8 0.2 -1.8
v 1.8 0.2 -1.8
v 1.9 0.2 -1.8
v 2 0.2 -1.8
v -1.9 0.2 -1.9
v -1.8 0.2 -1.9
v 1.8 0.2 -1.9
v 1.9 0.2 -1.9
v -1.8 0.2 -2
v 1.8 0.2 -2
v -1.8 0.3 1.9
v 1.8 0.3 1.9
v -1.9 0.3 1.8
v -1.8 0.3 1.8
v 1.8 0.3 1.8
v 1.9 0.3 1.8
v -1.7 0.3 1.7
v -1.6 0.3 1.7
v 1.6 0.3 1.7
v 1.7 0.3 1.7
v -1.7 0.3 1.6
v -1.6 0.3 1.6
v 1.6 0.3 1.6
v 1.7 0.3 1.6
v -1.5 0.3 1.5
v 1.5 0.3 1.5
v -1.5 0.3 -1.5
v 1.5 0.3 -1.5
v -1.7 0.3 -1.6
v -1.6 0.3 -1.6
v 1.6 0.3 -1.6
v 1.7 0.3 -1.6
v -1.7 0.3 -1.7
v -1.6 0.3 -1.7
v 1.6 0.3 -1.7
v 1.7 0.3 -1.7
v -1.9 0.3 -1.8
v -1.8 0.3 -1.8
v 1.8 0.3 -1.8
v 1.9 0.3 -1.8
v -1.8 0.3 -1.9
v 1.8 0.3 -1.9

# faces
f 3/3/1 2/3/1 1/3/1
f 4/3/1 2/3/1 3/3/1
f 9/3/1 6/3/1 5/3/1
f 10/3/1 6/3/1 9/3/1
f 11/3/1 8/3/1 7/3/1
f 12/3/1 8/3/1 11/3/1
f 13/2/1 11/2/1 10/2/1
f 14/2/1 11/2/1 13/2/1
f 19/3/1 16/3/1 15/3/1
f 20/3/1 16/3/1 19/3/1
f 23/3/1 18/3/1 17/3/1
f 24/3/1 18/3/1 23/3/1
f 25/2/1 21/2/1 20/2/1
f 26/2/1 21/2/1 25/2/1
f 27/2/1 23/2/1 22/2/1
f 28/2/1 23/2/1 27/2/1
f 31/1/1 30/1/1 29/1/1
f 32/1/1 30/1/1 31/1/1
f 35/2/1 34/2/1 33/2/1
f 36/2/1 34/2/1 35/2/1
f 37/2/2 38/2/2 39/2/2
f 39/2/2 38/2/2 40/2/2
f 41/1/2 42/1/2 43/1/2
f 43/1/2 42/1/2 44/1/2
f 45/3/2 46/3/2 49/3/2
f 49/3/2 46/3/2 50/3/2
f 47/3/2 48/3/2 53/3/2
f 53/3/2 48/3/2 54/3/2
f 50/2/2 51/2/2 55/2/2
f 55/2/2 51/2/2 56/2/2
f 52/2/2 53/2/2 57/2/2
f 57/2/2 53/2/2 58/2/2
f 59/3/2 60/3/2 63/3/2
f 63/3/2 60/3/2 64/3/2
f 61/3/2 62/3/2 65/3/2
f 65/3/2 62/3/2 66/3/2
f 64/2/2 65/2/2 67/2/2
f 67/2/2 65/2/2 68/2/2
f 69/3/2 70/3/2 71/3/2
f 71/3/2 70/3/2 72/3/2
f 75/3/3 74/3/3 73/3/3
f 76/3/3 74/3/3 75/3/3
f 79/3/3 78/3/3 77/3/3
f 80/3/3 78/3/3 79/3/3
f 83/2/3 81/2/3 80/2/3
f 84/2/3 81/2/3 83/2/3
f 85/3/3 83/3/3 82/3/3
f 86/3/3 83/3/3 85/3/3
f 89/3/3 88/3/3 87/3/3
f 90/3/3 88/3/3 89/3/3
f 92/2/3 91/2/3 90/2/3
f 93/2/3 91/2/3 92/2/3
f 97/2/3 95/2/3 94/2/3
f 98/2/3 95/2/3 97/2/3
f 99/3/3 97/3/3 96/3/3
f 100/3/3 97/3/3 99/3/3
f 103/1/3 102/1/3 101/1/3
f 104/1/3 102/1/3 103/1/3
f 107/2/3 106/2/3 105/2/3
f 108/2/3 106/2/3 107/2/3
f 109/2/4 110/2/4 111/2/4
f 111/2/4 110/2/4 112/2/4
f 113/1/4 114/1/4 115/1/4
f 115/1/4 114/1/4 116/1/4
f 117/3/4 118/3/4 119/3/4
f 119/3/4 118/3/4 120/3/4
f 120/2/4 121/2/4 122/2/4
f 122/2/4 121/2/4 123/2/4
f 124/2/4 125/2/4 127/2/4
f 127/2/4 125/2/4 128/2/4
f 126/3/4 127/3/4 129/3/4
f 129/3/4 127/3/4 130/3/4
f 131/3/4 132/3/4 133/3/4
f 133/3/4 132/3/4 134/3/4
f 134/2/4 135/2/4 137/2/4
f 137/2/4 135/2/4 138/2/4
f 136/3/4 137/3/4 139/3/4
f 139/3/4 137/3/4 140/3/4
f 141/3/4 142/3/4 143/3/4
f 143/3/4 142/3/4 144/3/4
f 148/3/5 146/3/5 145/3/5
f 149/3/5 146/3/5 148/3/5
f 152/3/5 148/3/5 147/3/5
f 153/2/5 149/2/5 148/2/5
f 153/3/5 148/3/5 152/3/5
f 154/3/5 150/3/5 149/3/5
f 154/2/5 149/2/5 153/2/5
f 155/3/5 150/3/5 154/3/5
f 157/2/5 153/2/5 152/2/5
f 157/2/5 154/2/5 153/2/5
f 157/2/5 155/2/5 154/2/5
f 158/2/5 155/2/5 157/2/5
f 159/1/5 158/1/5 157/1/5
f 160/1/5 158/1/5 159/1/5
f 161/1/5 158/1/5 160/1/5
f 162/1/5 158/1/5 161/1/5
f 163/1/5 159/1/5 157/1/5
f 163/5/5 160/5/5 159/5/5
f 164/2/5 161/2/5 160/2/5
f 164/5/5 160/5/5 163/5/5
f 165/2/5 161/2/5 164/2/5
f 166/2/5 161/2/5 165/2/5
f 167/5/5 162/5/5 161/5/5
f 167/2/5 161/2/5 166/2/5
f 168/1/5 158/1/5 162/1/5
f 168/5/5 162/5/5 167/5/5
f 169/2/5 164/2/5 163/2/5
f 169/5/5 165/5/5 164/5/5
f 170/2/5 166/2/5 165/2/5
f 170/5/5 165/5/5 169/5/5
f 171/2/5 166/2/5 170/2/5
f 172/2/5 166/2/5 171/2/5
f 173/5/5 167/5/5 166/5/5
f 173/2/5 166/2/5 172/2/5
f 174/2/5 168/2/5 167/2/5
f 174/5/5 167/5/5 173/5/5
f 175/2/5 170/2/5 169/2/5
f 175/5/5 171/5/5 170/5/5
f 176/2/5 172/2/5 171/2/5
f 176/5/5 171/5/5 175/5/5
f 177/5/5 173/5/5 172/5/5
f 177/2/5 172/2/5 176/2/5
f 178/2/5 174/2/5 173/2/5
f 178/5/5 173/5/5 177/5/5
f 179/1/5 177/1/5 176/1/5
f 180/1/5 177/1/5 179/1/5
f 181/1/5 179/1/5 176/1/5
f 182/1/5 177/1/5 180/1/5
f 183/2/5 175/2/5 169/2/5
f 183/2/5 176/2/5 175/2/5
f 184/1/5 182/1/5 181/1/5
f 184/2/5 176/2/5 183/2/5
f 184/1/5 181/1/5 176/1/5
f 185/1/5 177/1/5 182/1/5
f 185/1/5 182/1/5 184/1/5
f 185/2/5 178/2/5 177/2/5
f 186/2/5 174/2/5 178/2/5
f 186/2/5 178/2/5 185/2/5
f 187/2/5 183/2/5 169/2/5
f 187/2/5 169/2/5 163/2/5
f 188/5/5 184/5/5 183/5/5
f 188/2/5 183/2/5 187/2/5
f 189/2/5 185/2/5 184/2/5
f 189/5/5 184/5/5 188/5/5
f 190/5/5 186/5/5 185/5/5
f 190/2/5 185/2/5 189/2/5
f 191/2/5 174/2/5 186/2/5
f 191/5/5 186/5/5 190/5/5
f 192/2/5 168/2/5 174/2/5
f 192/2/5 174/2/5 191/2/5
f 193/1/5 163/1/5 157/1/5
f 193/2/5 187/2/5 163/2/5
f 194/5/5 188/5/5 187/5/5
f 194/2/5 187/2/5 193/2/5
f 195/2/5 190/2/5 189/2/5
f 195/5/5 188/5/5 194/5/5
f 195/2/5 189/2/5 188/2/5
f 195/2/5 191/2/5 190/2/5
f 196/5/5 192/5/5 191/5/5
f 196/2/5 191/2/5 195/2/5
f 197/2/5 168/2/5 192/2/5
f 197/5/5 192/5/5 196/5/5
f 198/1/5 158/1/5 168/1/5
f 198/2/5 168/2/5 197/2/5
f 199/5/5 194/5/5 193/5/5
f 199/1/5 193/1/5 157/1/5
f 200/2/5 196/2/5 195/2/5
f 200/5/5 194/5/5 199/5/5
f 200/2/5 197/2/5 196/2/5
f 200/2/5 195/2/5 194/2/5
f 201/5/5 198/5/5 197/5/5
f 201/2/5 197/2/5 200/2/5
f 202/1/5 158/1/5 198/1/5
f 202/5/5 198/5/5 201/5/5
f 203/2/5 157/2/5 152/2/5
f 203/1/5 201/1/5 200/1/5
f 203/1/5 202/1/5 201/1/5
f 203/1/5 200/1/5 199/1/5
f 203/1/5 199/1/5 157/1/5
f 204/1/5 158/1/5 202/1/5
f 204/1/5 202/1/5 203/1/5
f 204/2/5 155/2/5 158/2/5
f 205/3/5 152/3/5 151/3/5
f 206/2/5 203/2/5 152/2/5
f 206/3/5 152/3/5 205/3/5
f 206/2/5 204/2/5 203/2/5
f 207/2/5 204/2/5 206/2/5
f 208/2/5 155/2/5 204/2/5
f 208/2/5 204/2/5 207/2/5
f 209/3/5 156/3/5 155/3/5
f 209/2/5 155/2/5 208/2/5
f 210/3/5 156/3/5 209/3/5
f 211/3/5 207/3/5 206/3/5
f 212/2/5 208/2/5 207/2/5
f 212/3/5 207/3/5 211/3/5
f 213/3/5 209/3/5 208/3/5
f 213/2/5 208/2/5 212/2/5
f 214/3/5 209/3/5 213/3/5
f 215/3/5 213/3/5 212/3/5
f 216/3/5 213/3/5 215/3/5
f 217/1/6 218/1/6 219/1/6
f 219/1/6 218/1/6 220/1/6
f 220/1/6 218/1/6 221/1/6
f 221/1/6 218/1/6 222/1/6
f 217/1/6 219/1/6 223/1/6
f 219/5/6 220/5/6 223/5/6
f 220/2/6 221/2/6 224/2/6
f 223/5/6 220/5/6 224/5/6
f 224/2/6 221/2/6 225/2/6
f 225/2/6 221/2/6 226/2/6
f 221/5/6 222/5/6 227/5/6
f 226/2/6 221/2/6 227/2/6
f 222/1/6 218/1/6 228/1/6
f 227/5/6 222/5/6 228/5/6
f 223/2/6 224/2/6 229/2/6
f 224/5/6 225/5/6 229/5/6
f 225/2/6 226/2/6 230/2/6
f 229/5/6 225/5/6 230/5/6
f 230/2/6 226/2/6 231/2/6
f 231/2/6 226/2/6 232/2/6
f 226/5/6 227/5/6 233/5/6
f 232/2/6 226/2/6 233/2/6
f 227/2/6 228/2/6 234/2/6
f 233/5/6 227/5/6 234/5/6
f 229/2/6 230/2/6 235/2/6
f 230/5/6 231/5/6 235/5/6
f 231/2/6 232/2/6 236/2/6
f 235/5/6 231/5/6 236/5/6
f 232/5/6 233/5/6 237/5/6
f 236/2/6 232/2/6 237/2/6
f 233/2/6 234/2/6 238/2/6
f 237/5/6 233/5/6 238/5/6
f 236/1/6 237/1/6 239/1/6
f 239/1/6 237/1/6 240/1/6
f 236/1/6 239/1/6 241/1/6
f 240/1/6 237/1/6 242/1/6
f 229/2/6 235/2/6 243/2/6
f 235/2/6 236/2/6 243/2/6
f 241/1/6 242/1/6 244/1/6
f 243/2/6 236/2/6 244/2/6
f 236/1/6 241/1/6 244/1/6
f 242/1/6 237/1/6 245/1/6
f 244/1/6 242/1/6 245/1/6
f 237/2/6 238/2/6 245/2/6
f 238/2/6 234/2/6 246/2/6
f 245/2/6 238/2/6 246/2/6
f 229/2/6 243/2/6 247/2/6
f 223/2/6 229/2/6 247/2/6
f 243/5/6 244/5/6 248/5/6
f 247/2/6 243/2/6 248/2/6
f 244/2/6 245/2/6 249/2/6
f 248/5/6 244/5/6 249/5/6
f 245/5/6 246/5/6 250/5/6
f 249/2/6 245/2/6 250/2/6
f 246/2/6 234/2/6 251/2/6
f 250/5/6 246/5/6 251/5/6
f 234/2/6 228/2/6 252/2/6
f 251/2/6 234/2/6 252/2/6
f 217/1/6 223/1/6 253/1/6
f 223/2/6 247/2/6 253/2/6
f 247/5/6 248/5/6 254/5/6
f 253/2/6 247/2/6 254/2/6
f 249/2/6 250/2/6 255/2/6
f 254/5/6 248/5/6 255/5/6
f 248/2/6 249/2/6 255/2/6
f 250/2/6 251/2/6 255/2/6
f 251/5/6 252/5/6 256/5/6
f 255/2/6 251/2/6 256/2/6
f 252/2/6 228/2/6 257/2/6
f 256/5/6 252/5/6 257/5/6
f 228/1/6 218/1/6 258/1/6
f 257/2/6 228/2/6 258/2/6
f 253/5/6 254/5/6 259/5/6
f 217/1/6 253/1/6 259/1/6
f 255/2/6 256/2/6 260/2/6
f 259/5/6 254/5/6 260/5/6
f 256/2/6 257/2/6 260/2/6
f 254/2/6 255/2/6 260/2/6
f 257/5/6 258/5/6 261/5/6
f 260/2/6 257/2/6 261/2/6
f 258/1/6 218/1/6 262/1/6
f 261/5/6 258/5/6 262/5/6
f 260/1/6 261/1/6 263/1/6
f 217/1/6 259/1/6 263/1/6
f 261/1/6 262/1/6 263/1/6
f 259/1/6 260/1/6 263/1/6
f 262/1/6 218/1/6 264/1/6
f 263/1/6 262/1/6 264/1/6
f 265/3/6 266/3/6 268/3/6
f 268/3/6 266/3/6 269/3/6
f 267/3/6 268/3/6 272/3/6
f 272/3/6 268/3/6 273/3/6
f 269/3/6 270/3/6 274/3/6
f 274/3/6 270/3/6 275/3/6
f 271/3/6 272/3/6 277/3/6
f 277/3/6 272/3/6 278/3/6
f 275/3/6 276/3/6 281/3/6
f 281/3/6 276/3/6 282/3/6
f 278/3/6 279/3/6 283/3/6
f 283/3/6 279/3/6 284/3/6
f 280/3/6 281/3/6 285/3/6
f 285/3/6 281/3/6 286/3/6
f 284/3/6 285/3/6 287/3/6
f 287/3/6 285/3/6 288/3/6
f 289/2/6 290/2/6 292/2/6
f 292/2/6 290/2/6 293/2/6
f 291/2/6 292/2/6 295/2/6
f 293/2/6 294/2/6 295/2/6
f 292/2/6 293/2/6 295/2/6
f 295/2/6 294/2/6 296/2/6
f 296/2/6 294/2/6 297/2/6
f 297/2/6 294/2/6 298/2/6
f 291/2/6 295/2/6 299/2/6
f 295/1/6 296/1/6 299/1/6
f 296/2/6 297/2/6 300/2/6
f 299/1/6 296/1/6 300/1/6
f 297/1/6 298/1/6 301/1/6
f 300/2/6 297/2/6 301/2/6
f 298/2/6 294/2/6 302/2/6
f 301/1/6 298/1/6 302/1/6
f 300/2/6 301/2/6 303/2/6
f 299/2/6 300/2/6 303/2/6
f 301/2/6 302/2/6 303/2/6
f 303/2/6 302/2/6 304/2/6
f 299/2/6 303/2/6 305/2/6
f 304/2/6 302/2/6 306/2/6
f 291/2/6 299/2/6 307/2/6
f 305/2/6 306/2/6 307/2/6
f 299/2/6 305/2/6 307/2/6
f 307/2/6 306/2/6 308/2/6
f 306/2/6 302/2/6 309/2/6
f 308/2/6 306/2/6 309/2/6
f 302/2/6 294/2/6 310/2/6
f 309/2/6 302/2/6 310/2/6
f 307/1/6 308/1/6 311/1/6
f 291/2/6 307/2/6 311/2/6
f 308/2/6 309/2/6 312/2/6
f 311/1/6 308/1/6 312/1/6
f 309/1/6 310/1/6 313/1/6
f 312/2/6 309/2/6 313/2/6
f 310/2/6 294/2/6 314/2/6
f 313/1/6 310/1/6 314/1/6
f 291/2/6 311/2/6 315/2/6
f 312/2/6 313/2/6 315/2/6
f 313/2/6 314/2/6 315/2/6
f 311/2/6 312/2/6 315/2/6
f 315/2/6 314/2/6 316/2/6
f 314/2/6 294/2/6 317/2/6
f 316/2/6 314/2/6 317/2/6
f 317/2/6 294/2/6 318/2/6
f 316/2/6 317/2/6 319/2/6
f 319/2/6 317/2/6 320/2/6
